<svg width="12" height="14" viewBox="0 0 12 14" fill="none" xmlns="http://www.w3.org/2000/svg">
<path d="M0.75 11.0833C0.75 10.7739 0.873004 10.4773 1.0918 10.2585C1.31059 10.0397 1.60725 9.91667 1.91667 9.91667C2.22608 9.91667 2.52274 10.0397 2.74154 10.2585C2.96033 10.4773 3.08333 10.7739 3.08333 11.0833C3.08333 11.3928 2.96033 11.6894 2.74154 11.9082C2.52274 12.127 2.22608 12.25 1.91667 12.25C1.60725 12.25 1.31059 12.127 1.0918 11.9082C0.873005 11.6894 0.75 11.3928 0.75 11.0833ZM4.83333 11.0833C4.83333 10.7739 4.95634 10.4773 5.17513 10.2585C5.39392 10.0397 5.69058 9.91667 6 9.91667C6.30942 9.91667 6.60608 10.0397 6.82487 10.2585C7.04366 10.4773 7.16667 10.7739 7.16667 11.0833C7.16667 11.3928 7.04366 11.6894 6.82487 11.9082C6.60608 12.127 6.30942 12.25 6 12.25C5.69058 12.25 5.39392 12.127 5.17513 11.9082C4.95634 11.6894 4.83333 11.3928 4.83333 11.0833ZM8.91667 11.0833C8.91667 10.7739 9.03967 10.4773 9.25846 10.2585C9.47726 10.0397 9.77392 9.91667 10.0833 9.91667C10.3928 9.91667 10.6894 10.0397 10.9082 10.2585C11.127 10.4773 11.25 10.7739 11.25 11.0833C11.25 11.3928 11.127 11.6894 10.9082 11.9082C10.6894 12.127 10.3928 12.25 10.0833 12.25C9.77392 12.25 9.47726 12.127 9.25846 11.9082C9.03967 11.6894 8.91667 11.3928 8.91667 11.0833ZM0.75 7C0.75 6.69058 0.873005 6.39392 1.0918 6.17513C1.31059 5.95634 1.60725 5.83333 1.91667 5.83333C2.22609 5.83333 2.52274 5.95634 2.74154 6.17513C2.96033 6.39392 3.08333 6.69058 3.08333 7C3.08333 7.30942 2.96033 7.60608 2.74154 7.82487C2.52274 8.04366 2.22609 8.16667 1.91667 8.16667C1.60725 8.16667 1.31059 8.04366 1.0918 7.82487C0.873005 7.60608 0.75 7.30942 0.75 7ZM4.83333 7C4.83333 6.69058 4.95634 6.39392 5.17513 6.17513C5.39392 5.95634 5.69058 5.83333 6 5.83333C6.30942 5.83333 6.60608 5.95634 6.82487 6.17513C7.04366 6.39392 7.16667 6.69058 7.16667 7C7.16667 7.30942 7.04366 7.60608 6.82487 7.82487C6.60608 8.04366 6.30942 8.16667 6 8.16667C5.69058 8.16667 5.39392 8.04366 5.17513 7.82487C4.95634 7.60608 4.83333 7.30942 4.83333 7ZM8.91667 7C8.91667 6.69058 9.03967 6.39392 9.25846 6.17513C9.47726 5.95634 9.77391 5.83333 10.0833 5.83333C10.3928 5.83333 10.6894 5.95634 10.9082 6.17513C11.127 6.39392 11.25 6.69058 11.25 7C11.25 7.30942 11.127 7.60608 10.9082 7.82487C10.6894 8.04366 10.3928 8.16667 10.0833 8.16667C9.77391 8.16667 9.47726 8.04366 9.25846 7.82487C9.03967 7.60608 8.91667 7.30942 8.91667 7ZM0.75 2.91667C0.75 2.60725 0.873005 2.31059 1.0918 2.0918C1.31059 1.873 1.60725 1.75 1.91667 1.75C2.22609 1.75 2.52274 1.873 2.74154 2.0918C2.96033 2.31059 3.08333 2.60725 3.08333 2.91667C3.08333 3.22609 2.96033 3.52274 2.74154 3.74154C2.52274 3.96033 2.22609 4.08333 1.91667 4.08333C1.60725 4.08333 1.31059 3.96033 1.0918 3.74154C0.873005 3.52274 0.75 3.22609 0.75 2.91667ZM4.83333 2.91667C4.83333 2.60725 4.95634 2.31059 5.17513 2.0918C5.39392 1.873 5.69058 1.75 6 1.75C6.30942 1.75 6.60608 1.873 6.82487 2.0918C7.04366 2.31059 7.16667 2.60725 7.16667 2.91667C7.16667 3.22609 7.04366 3.52274 6.82487 3.74154C6.60608 3.96033 6.30942 4.08333 6 4.08333C5.69058 4.08333 5.39392 3.96033 5.17513 3.74154C4.95634 3.52274 4.83333 3.22609 4.83333 2.91667ZM8.91667 2.91667C8.91667 2.60725 9.03967 2.31059 9.25846 2.0918C9.47726 1.873 9.77391 1.75 10.0833 1.75C10.3928 1.75 10.6894 1.873 10.9082 2.0918C11.127 2.31059 11.25 2.60725 11.25 2.91667C11.25 3.22608 11.127 3.52274 10.9082 3.74154C10.6894 3.96033 10.3928 4.08333 10.0833 4.08333C9.77391 4.08333 9.47726 3.96033 9.25846 3.74154C9.03967 3.52274 8.91667 3.22608 8.91667 2.91667Z" fill="#2F43D0"/>
</svg>
