<svg width="19" height="18" viewBox="0 0 19 18" fill="none" xmlns="http://www.w3.org/2000/svg">
<path d="M16.9001 8.08245L16.4434 7.0772C16.3429 6.85317 16.0213 6.85317 15.9208 7.0772L15.4642 8.08245L14.459 8.53912C14.235 8.64252 14.235 8.96133 14.459 9.06185L15.4642 9.51852L15.9208 10.5238C16.0242 10.7478 16.3429 10.7478 16.4434 10.5238L16.9001 9.51852L17.9052 9.06185C18.1292 8.95846 18.1292 8.63965 17.9052 8.53912L16.9001 8.08245Z" fill="#101840"/>
<path d="M13.6144 6.95949L13.351 7.53932C13.2931 7.66854 13.1075 7.66854 13.0495 7.53932L12.7861 6.95949L12.2063 6.69608C12.0771 6.63644 12.0771 6.45255 12.2063 6.39457L12.7861 6.13116L13.0495 5.55133C13.1092 5.42211 13.2931 5.42211 13.351 5.55133L13.6144 6.13116L14.1943 6.39457C14.3235 6.45421 14.3235 6.63809 14.1943 6.69608L13.6144 6.95949Z" fill="#101840"/>
<path d="M5.25553 11.325C5.02086 11.325 4.83953 11.261 4.71153 11.133C4.58353 10.9997 4.51953 10.813 4.51953 10.573V6.29302C4.51953 6.04768 4.58353 5.86102 4.71153 5.73302C4.83953 5.60502 5.02086 5.54102 5.25553 5.54102C5.49553 5.54102 5.67686 5.60502 5.79953 5.73302C5.92753 5.86102 5.99153 6.04768 5.99153 6.29302V10.573C5.99153 10.813 5.9302 10.9997 5.80753 11.133C5.68486 11.261 5.50086 11.325 5.25553 11.325Z" fill="#101840"/>
<path d="M7.67572 11.325C7.51039 11.325 7.37172 11.2877 7.25972 11.213C7.14772 11.133 7.07839 11.0263 7.05172 10.893C7.02505 10.7543 7.04905 10.5997 7.12372 10.429L9.11572 6.14102C9.21172 5.93302 9.32905 5.78102 9.46772 5.68502C9.61172 5.58902 9.77439 5.54102 9.95572 5.54102C10.1371 5.54102 10.2944 5.58902 10.4277 5.68502C10.5664 5.78102 10.6864 5.93302 10.7877 6.14102L12.7797 10.429C12.8651 10.5997 12.8944 10.7543 12.8677 10.893C12.8464 11.0317 12.7797 11.1383 12.6677 11.213C12.5611 11.2877 12.4277 11.325 12.2677 11.325C12.0544 11.325 11.8891 11.277 11.7717 11.181C11.6597 11.085 11.5584 10.9303 11.4677 10.717L11.0357 9.70102L11.5957 10.109H8.29972L8.86772 9.70102L8.43572 10.717C8.33972 10.9303 8.24105 11.085 8.13972 11.181C8.03839 11.277 7.88372 11.325 7.67572 11.325ZM9.93972 7.14902L9.01172 9.36502L8.78772 8.98102H11.1157L10.8917 9.36502L9.95572 7.14902H9.93972Z" fill="#101840"/>
<mask id="mask0_5002_25258" style="mask-type:alpha" maskUnits="userSpaceOnUse" x="0" y="0" width="19" height="18">
<path d="M18.1818 5.45455H16H15.6364V2.90909H2.90909V15.2727H14.9091V12.3636H18.1818V17.4545H0V0H18.1818V5.45455Z" fill="#D9D9D9"/>
</mask>
<g mask="url(#mask0_5002_25258)">
<rect x="1.22656" y="1.22705" width="15" height="15" rx="2.40909" stroke="url(#paint0_linear_5002_25258)"/>
</g>
<defs>
<linearGradient id="paint0_linear_5002_25258" x1="0.726563" y1="0.727051" x2="16.7266" y2="0.727051" gradientUnits="userSpaceOnUse">
<stop stop-color="#2F43D0"/>
<stop offset="0.48" stop-color="#495BDC"/>
<stop offset="1" stop-color="#119081"/>
</linearGradient>
</defs>
</svg>
