<svg width="75" height="72" viewBox="0 0 75 72" fill="none" xmlns="http://www.w3.org/2000/svg">
<path d="M16.7724 45.5533C16.3722 44.6373 16.033 43.6943 15.7515 42.724L42.7915 30.9658C43.9209 30.4739 44.5959 29.3714 44.596 28.2146C44.596 27.8143 44.5146 27.4106 44.3484 27.0205C43.687 25.5007 41.9199 24.8019 40.4004 25.4634L14.8054 36.594C14.7986 36.3973 14.7952 36.2005 14.7952 36.0038C14.7956 22.7464 25.5446 11.9958 38.7998 11.9957C41.364 11.9957 43.8367 12.3993 46.1532 13.1456L31.6564 19.4522C30.5269 19.9441 29.8519 21.0466 29.8519 22.2068C29.8519 22.6071 29.9333 23.0108 30.0995 23.4009C30.7608 24.9207 32.528 25.6161 34.0475 24.9546L53.0521 16.6872C56.4167 19.1772 59.1063 22.5254 60.8021 26.4063L16.7724 45.5533Z" fill="#B6C0FF"/>
<path d="M44.9275 48.365C44.9275 48.7653 45.0089 49.169 45.1751 49.5591C45.8364 51.0789 47.6035 51.7777 49.1231 51.1128L60.5503 46.1428C56.7308 54.3287 48.4207 60.0042 38.7914 60.0043C31.0987 60.0044 24.2473 56.3814 19.8551 50.7535L62.4976 32.2069C62.6943 33.4418 62.796 34.7071 62.7959 35.9962C62.7959 36.9054 62.745 37.8044 62.6466 38.6864L46.7286 45.6104C45.5991 46.1023 44.9241 47.2082 44.9241 48.365L44.9275 48.365Z" fill="#B6C0FF"/>
<circle cx="7.53418" cy="53.3027" r="3.34905" transform="rotate(45 7.53418 53.3027)" fill="#B6C0FF"/>
<circle cx="61.1162" cy="9.76556" r="3.34905" transform="rotate(45 61.1162 9.76556)" fill="#B6C0FF"/>
<circle cx="70.329" cy="39.9062" r="3.34905" transform="rotate(-45 70.329 39.9062)" fill="#B6C0FF"/>
<circle cx="3.34857" cy="44.9297" r="3.34905" transform="rotate(-45 3.34857 44.9297)" fill="#B6C0FF"/>
</svg>
