<svg width="81" height="49" viewBox="0 0 81 49" fill="none" xmlns="http://www.w3.org/2000/svg">
<circle cx="16.1402" cy="45.4897" r="2.34786" transform="rotate(90 16.1402 45.4897)" fill="#E1E6FF"/>
<circle cx="67.4996" cy="33.457" r="2.34786" transform="rotate(90 67.4996 33.457)" fill="#E1E6FF"/>
<circle cx="2.3477" cy="39.9138" r="2.34786" transform="rotate(90 2.3477 39.9138)" fill="#E1E6FF"/>
<circle cx="63.0976" cy="7.0439" r="2.34786" transform="rotate(90 63.0976 7.0439)" fill="#E1E6FF"/>
<path d="M48.4052 37.8967C48.4051 37.6178 48.2261 37.217 47.5914 36.7598C47.0971 36.404 46.4003 36.0752 45.5357 35.8077C45.4673 35.8949 45.3935 35.9752 45.3168 36.0478C45.0039 36.3437 44.5955 36.572 44.1604 36.746C43.2855 37.0958 42.1343 37.2937 40.9052 37.2937C39.6761 37.2937 38.5248 37.0958 37.65 36.746C37.2148 36.572 36.8065 36.3437 36.4936 36.0478C36.4158 35.9742 36.3406 35.8931 36.2714 35.8044C35.4119 36.0715 34.7183 36.4004 34.2247 36.7558C33.5855 37.216 33.4053 37.6191 33.4052 37.8967C33.4052 38.1077 33.5013 38.3783 33.8194 38.7C34.1412 39.0253 34.6487 39.3563 35.3412 39.6521C36.7232 40.2423 38.69 40.627 40.9052 40.627C43.1204 40.627 45.0872 40.2423 46.4692 39.6521C47.1617 39.3563 47.6692 39.0253 47.991 38.7C48.3091 38.3783 48.4052 38.1077 48.4052 37.8967ZM40.9133 38.127C41.3736 38.127 41.7467 38.5001 41.7467 38.9604C41.7467 39.4206 41.3736 39.7937 40.9133 39.7937H40.9052C40.445 39.7937 40.0719 39.4206 40.0719 38.9604C40.0719 38.5001 40.445 38.127 40.9052 38.127H40.9133ZM36.7467 37.2937C37.2069 37.2937 37.58 37.6668 37.58 38.127C37.58 38.5873 37.2069 38.9604 36.7467 38.9604H36.7385C36.2783 38.9604 35.9052 38.5873 35.9052 38.127C35.9052 37.6668 36.2783 37.2937 36.7385 37.2937H36.7467ZM45.08 37.2937C45.5402 37.2937 45.9133 37.6668 45.9133 38.127C45.9133 38.5873 45.5402 38.9604 45.08 38.9604H45.0719C44.6116 38.9604 44.2385 38.5873 44.2385 38.127C44.2385 37.6668 44.6116 37.2937 45.0719 37.2937H45.08ZM40.9052 31.4604C39.1446 31.4604 37.7108 32.8108 37.5816 34.5138C37.5911 34.5405 37.6 34.5678 37.6069 34.5959C37.6257 34.6731 37.6317 34.7506 37.6288 34.8263C37.6321 34.8295 37.635 34.8334 37.6386 34.8368C37.7474 34.9397 37.9495 35.0714 38.2685 35.199C38.9017 35.4522 39.8337 35.627 40.9052 35.627C41.9767 35.627 42.9087 35.4522 43.5419 35.199C43.8608 35.0714 44.063 34.9397 44.1718 34.8368C44.1819 34.8273 44.1894 34.8172 44.197 34.8092C44.1965 34.7416 44.2038 34.6728 44.2206 34.6041C44.2239 34.5909 44.2282 34.5779 44.232 34.565C44.128 32.838 42.6834 31.4604 40.9052 31.4604ZM50.0719 37.8967C50.0719 38.672 49.7014 39.3404 49.1759 39.8718C48.6539 40.3995 47.94 40.836 47.1243 41.1845C46.4163 41.4869 45.6021 41.7348 44.713 41.9194L45.7652 43.4981C46.0205 43.8811 45.917 44.3984 45.5341 44.6537C45.1512 44.909 44.6338 44.8055 44.3785 44.4226L42.8933 42.1944C42.2515 42.2585 41.586 42.2937 40.9052 42.2937C40.1013 42.2937 39.3185 42.2456 38.5712 42.157L37.484 44.3331C37.2781 44.7447 36.7775 44.9116 36.3658 44.7058C35.9542 44.5 35.7873 43.9993 35.9931 43.5876L36.8533 41.8665C36.0591 41.6883 35.3288 41.459 34.6861 41.1845C33.8703 40.836 33.1565 40.3995 32.6345 39.8718C32.109 39.3404 31.7385 38.672 31.7385 37.8967C31.7387 36.8495 32.4089 36.0092 33.2506 35.4032C33.962 34.891 34.8884 34.4744 35.9426 34.1622C36.242 31.6969 38.354 29.7937 40.9052 29.7937C43.4578 29.7937 45.5702 31.699 45.8678 34.1663C46.9242 34.4782 47.8524 34.8944 48.5647 35.4073C49.4044 36.012 50.0717 36.8501 50.0719 37.8967Z" fill="url(#paint0_linear_4569_85363)" fill-opacity="0.54"/>
<path d="M2.34589 44.4487C4.72616 63.8903 21.2943 78.9467 41.379 78.9467C63.0985 78.9467 80.7057 61.3396 80.7057 39.6201C80.7057 27.3706 75.1052 16.4291 66.325 9.21661C66.1309 9.05716 65.9353 8.89953 65.7381 8.74375M2.23511 35.8048C4.15371 15.8756 20.9467 0.293457 41.379 0.293457C47.7807 0.293457 53.8251 1.82304 59.1667 4.53668" stroke="url(#paint1_linear_4569_85363)" stroke-width="0.586965" stroke-linecap="round"/>
<path d="M15.0965 41.9681C15.0112 41.0992 14.9675 40.2181 14.9675 39.3268C14.9675 24.577 26.9246 12.6199 41.6744 12.6199C53.0565 12.6199 62.7756 19.7402 66.6204 29.7696M17.0219 49.6167C21.051 59.2584 30.5715 66.0336 41.6744 66.0336C56.4242 66.0336 68.3813 54.0766 68.3813 39.3268C68.3813 38.4741 68.3413 37.6309 68.2632 36.7987" stroke="url(#paint2_linear_4569_85363)" stroke-width="0.586965" stroke-linecap="round" stroke-linejoin="round"/>
<defs>
<linearGradient id="paint0_linear_4569_85363" x1="40.9052" y1="29.7937" x2="40.9052" y2="44.794" gradientUnits="userSpaceOnUse">
<stop stop-color="#8D9BFC"/>
<stop offset="1" stop-color="#495BDC"/>
</linearGradient>
<linearGradient id="paint1_linear_4569_85363" x1="80.7057" y1="3.06091" x2="2.23512" y2="76.1793" gradientUnits="userSpaceOnUse">
<stop stop-color="#8D9BFC"/>
<stop offset="1" stop-color="#E1E6FF" stop-opacity="0.1"/>
</linearGradient>
<linearGradient id="paint2_linear_4569_85363" x1="23.8194" y1="19.4515" x2="63.0986" y2="70.4359" gradientUnits="userSpaceOnUse">
<stop stop-color="#8D9BFC"/>
<stop offset="1" stop-color="#E1E6FF" stop-opacity="0.1"/>
</linearGradient>
</defs>
</svg>
